<?xml version="1.0" standalone="no"?>
<!DOCTYPE svg PUBLIC "-//W3C//DTD SVG 20010904//EN"
 "http://www.w3.org/TR/2001/REC-SVG-20010904/DTD/svg10.dtd">
<svg version="1.0" xmlns="http://www.w3.org/2000/svg"
 width="145.000000pt" height="145.000000pt" viewBox="0 0 145.000000 145.000000"
 preserveAspectRatio="xMidYMid meet">
<metadata>
Created by potrace 1.11, written by Peter Selinger 2001-2013
</metadata>
<g transform="translate(0.000000,145.000000) scale(0.100000,-0.100000)"
fill="#000000" stroke="none">
<path d="M298 1120 c-301 -76 -390 -281 -198 -453 72 -65 285 -171 429 -213
10 -3 6 -13 -13 -39 l-26 -34 37 -10 c160 -43 434 -56 568 -28 146 31 251 86
301 158 39 57 45 140 14 203 -28 59 -121 144 -203 187 -61 31 -65 35 -51 51
24 26 29 90 10 130 -33 68 -136 92 -193 44 l-28 -24 -85 20 c-130 30 -456 35
-562 8z m332 -100 c102 -13 237 -44 282 -65 18 -8 48 -26 67 -40 19 -14 48
-25 65 -25 17 0 38 -5 46 -10 11 -7 -2 -10 -42 -10 l-58 0 0 -125 0 -125 65 0
64 0 3 121 3 122 51 -41 c92 -73 121 -144 82 -202 -56 -82 -177 -114 -408
-107 -162 5 -232 17 -375 65 l-80 27 75 5 c93 8 138 30 147 72 l6 31 14 -27
c7 -14 33 -36 56 -48 36 -20 57 -23 144 -23 56 0 103 2 106 5 3 3 8 19 12 37
l6 32 -84 -6 c-77 -5 -86 -4 -106 16 -27 27 -27 63 0 87 23 20 93 25 158 11
33 -7 33 -7 27 25 -3 18 -10 36 -15 41 -17 17 -182 11 -229 -8 -50 -21 -92
-67 -92 -102 0 -24 -1 -25 -17 -10 -19 16 -76 32 -156 42 -31 4 -47 11 -44 18
4 14 125 17 170 4 26 -7 27 -6 27 26 0 33 -2 35 -46 41 -78 10 -173 7 -209 -8
-40 -17 -69 -57 -61 -84 14 -44 33 -51 196 -78 33 -5 34 -7 15 -20 -29 -21
-107 -17 -194 11 -21 6 -23 5 -18 -14 5 -19 4 -20 -22 -6 -44 22 -127 102
-141 135 -60 146 190 249 510 210z"/>
</g>
</svg>
